<svg width="24" height="24" viewBox="0 0 24 24" fill="none" xmlns="http://www.w3.org/2000/svg">
<path d="M21.5291 6.84501C21.7583 6.10551 21.8318 5.32653 21.745 4.55719C21.6582 3.78785 21.413 3.04484 21.0247 2.37501C20.9588 2.26097 20.8641 2.16628 20.7501 2.10045C20.636 2.03462 20.5067 1.99998 20.375 2.00001C19.5014 1.99818 18.6395 2.2007 17.8582 2.59137C17.0768 2.98205 16.3977 3.55006 15.875 4.25001H13.625C13.1023 3.55006 12.4232 2.98205 11.6418 2.59137C10.8605 2.2007 9.99857 1.99818 9.125 2.00001C8.99332 1.99998 8.86395 2.03462 8.7499 2.10045C8.63586 2.16628 8.54115 2.26097 8.47531 2.37501C8.08704 3.04484 7.84177 3.78785 7.75497 4.55719C7.66816 5.32653 7.74169 6.10551 7.97094 6.84501C7.50756 7.65381 7.25934 8.56793 7.25 9.50001V10.25C7.25158 11.519 7.71225 12.7446 8.54696 13.7004C9.38166 14.6563 10.534 15.2778 11.7913 15.4503C11.2781 16.107 10.9995 16.9166 11 17.75V18.5H8.75C8.15326 18.5 7.58097 18.263 7.15901 17.841C6.73705 17.419 6.5 16.8468 6.5 16.25C6.5 15.7576 6.403 15.2699 6.21455 14.8149C6.02609 14.36 5.74987 13.9466 5.40165 13.5984C5.05343 13.2501 4.64003 12.9739 4.18506 12.7855C3.73009 12.597 3.24246 12.5 2.75 12.5C2.55109 12.5 2.36032 12.579 2.21967 12.7197C2.07902 12.8603 2 13.0511 2 13.25C2 13.4489 2.07902 13.6397 2.21967 13.7803C2.36032 13.921 2.55109 14 2.75 14C3.34674 14 3.91903 14.2371 4.34099 14.659C4.76295 15.081 5 15.6533 5 16.25C5 17.2446 5.39509 18.1984 6.09835 18.9017C6.80161 19.6049 7.75544 20 8.75 20H11V21.5C11 21.6989 11.079 21.8897 11.2197 22.0303C11.3603 22.171 11.5511 22.25 11.75 22.25C11.9489 22.25 12.1397 22.171 12.2803 22.0303C12.421 21.8897 12.5 21.6989 12.5 21.5V17.75C12.5 17.1533 12.7371 16.581 13.159 16.159C13.581 15.7371 14.1533 15.5 14.75 15.5C15.3467 15.5 15.919 15.7371 16.341 16.159C16.7629 16.581 17 17.1533 17 17.75V21.5C17 21.6989 17.079 21.8897 17.2197 22.0303C17.3603 22.171 17.5511 22.25 17.75 22.25C17.9489 22.25 18.1397 22.171 18.2803 22.0303C18.421 21.8897 18.5 21.6989 18.5 21.5V17.75C18.5005 16.9166 18.2219 16.107 17.7087 15.4503C18.966 15.2778 20.1183 14.6563 20.953 13.7004C21.7877 12.7446 22.2484 11.519 22.25 10.25V9.50001C22.2407 8.56793 21.9924 7.65381 21.5291 6.84501ZM20.75 10.25C20.75 11.2446 20.3549 12.1984 19.6516 12.9017C18.9484 13.6049 17.9946 14 17 14H12.5C11.5054 14 10.5516 13.6049 9.84835 12.9017C9.14509 12.1984 8.75 11.2446 8.75 10.25V9.50001C8.7592 8.75004 8.98373 8.0185 9.39688 7.39251C9.47389 7.291 9.52377 7.17154 9.54182 7.0454C9.55986 6.91926 9.54547 6.79061 9.5 6.67157C9.30465 6.16776 9.21063 5.63035 9.22334 5.09013C9.23605 4.54992 9.35523 4.01752 9.57406 3.52345C10.1879 3.58948 10.7789 3.79281 11.3034 4.11836C11.828 4.44391 12.2725 4.88334 12.6041 5.40407C12.6716 5.50974 12.7646 5.59676 12.8745 5.6572C12.9844 5.71763 13.1077 5.74955 13.2331 5.75001H16.2659C16.3918 5.75002 16.5157 5.71833 16.6261 5.65787C16.7366 5.59742 16.83 5.51014 16.8978 5.40407C17.2293 4.8833 17.6738 4.44383 18.1984 4.11827C18.7229 3.79271 19.314 3.58941 19.9278 3.52345C20.1463 4.01765 20.2652 4.55011 20.2776 5.09032C20.29 5.63053 20.1956 6.16788 20 6.67157C19.9547 6.78947 19.9395 6.91682 19.9559 7.04206C19.9722 7.16731 20.0196 7.28648 20.0938 7.38876C20.511 8.01475 20.7388 8.7478 20.75 9.50001V10.25Z" fill="black"/>
</svg>
